<?xml version="1.0" encoding="utf-8"?>
<!-- Generator: Adobe Illustrator 30.4.0, SVG Export Plug-In . SVG Version: 9.03 Build 0)  -->
<svg version="1.1" id="Capa_1" xmlns="http://www.w3.org/2000/svg" xmlns:xlink="http://www.w3.org/1999/xlink" x="0px" y="0px"
	 viewBox="0 0 30 30" style="enable-background:new 0 0 30 30;" xml:space="preserve">
<rect x="-0.121" y="-0.12" style="fill:#FFE600;" width="30.268" height="30.268"/>
<g>
	<path d="M26.626,22.457c0.04-0.001,0.081-0.002,0.124-0.002c0.021,0,0.042,0,0.063-0.001c0.123-0.002,0.23-0.058,0.266-0.14
		l0.011-0.025c0.037-0.087-0.015-0.18-0.127-0.226c-0.057-0.023-0.115-0.048-0.171-0.071c-0.125-0.052-0.254-0.106-0.386-0.157
		c-1.452-0.557-2.714-0.938-3.97-1.201c-0.193-0.04-0.379-0.077-0.558-0.109c0.437-0.157,0.861-0.306,1.257-0.444
		c0.601-0.21,1.226-0.408,1.83-0.6c0.266-0.084,0.541-0.172,0.811-0.259c0.036-0.012,0.074-0.023,0.114-0.035
		c0.019-0.006,0.039-0.012,0.058-0.018c0.113-0.034,0.18-0.115,0.168-0.2l-0.004-0.026c-0.013-0.09-0.113-0.162-0.242-0.175
		c-0.065-0.006-0.133-0.013-0.197-0.02c-0.144-0.015-0.293-0.031-0.443-0.042c-1.649-0.127-3.025-0.144-4.33-0.052
		c-0.308,0.022-0.594,0.048-0.863,0.078c0.443-0.5,0.89-0.982,1.292-1.41c0.365-0.389,0.759-0.778,1.14-1.153l0.002-0.002
		c0.168-0.166,0.342-0.337,0.512-0.507c0.021-0.021,0.044-0.043,0.069-0.067c0.013-0.012,0.026-0.024,0.038-0.036
		c0.127-0.121,0.127-0.284-0.001-0.406l-0.022-0.021c-0.135-0.128-0.377-0.176-0.589-0.116c-0.06,0.017-0.122,0.034-0.183,0.051
		c-0.137,0.038-0.279,0.077-0.421,0.121c-1.243,0.382-2.277,0.766-3.197,1.187c0.061-0.473,0.124-0.961,0.205-1.438
		c0.076-0.446,0.169-0.9,0.259-1.339c0.04-0.195,0.081-0.397,0.121-0.597c0.004-0.021,0.007-0.04,0.01-0.063l0-0.001
		c0.002-0.011,0.003-0.024,0.006-0.039c0.021-0.14-0.081-0.273-0.26-0.339c-0.179-0.066-0.395-0.051-0.551,0.039
		c-0.012,0.007-0.023,0.013-0.034,0.019c-0.034,0.018-0.081,0.044-0.128,0.082c-0.19,0.154-0.416,0.308-0.653,0.462
		c-0.184-0.531-0.56-0.936-1.004-1.288c-0.102-0.081-0.214-0.151-0.311-0.237c-0.238-0.211-0.397-0.461-0.392-0.797
		c0.008-0.581,0.004-1.161,0.012-1.742c0.001-0.044,0.054-0.091,0.089-0.131c0.031-0.036,0.095-0.061,0.102-0.098
		c0.027-0.142,0.043-0.286,0.051-0.43c0.008-0.159,0.004-0.32,0.003-0.48c-0.001-0.173-0.03-0.214-0.2-0.254
		c-0.043-0.01-0.086-0.02-0.129-0.029c-0.001,0-0.002,0-0.003-0.001c-0.27-0.056-0.542-0.089-0.817-0.098c0,0,0,0.004-0.001,0.004
		V7.571c-0.026,0.001-0.052,0.002-0.078,0.003c-0.401,0.001-0.607,0.069-0.607,0.069c-0.088,0.016-0.176,0.034-0.264,0.055
		c-0.17,0.04-0.199,0.081-0.2,0.254c-0.001,0.16-0.005,0.32,0.003,0.48c0.008,0.144,0.024,0.289,0.051,0.43
		c0.007,0.038,0.071,0.062,0.102,0.098c0.035,0.04,0.089,0.087,0.089,0.131c0.008,0.581,0.004,1.161,0.012,1.742
		c0.005,0.336-0.154,0.586-0.392,0.797c-0.097,0.086-0.209,0.156-0.311,0.237c-0.456,0.361-0.839,0.778-1.018,1.33
		c-0.261-0.168-0.511-0.336-0.719-0.504c-0.047-0.038-0.094-0.063-0.128-0.082c-0.011-0.006-0.022-0.012-0.034-0.019
		c-0.156-0.09-0.372-0.105-0.551-0.039c-0.179,0.066-0.281,0.199-0.26,0.339c0.002,0.016,0.004,0.029,0.006,0.039l0,0.001
		c0.003,0.022,0.006,0.042,0.01,0.063c0.04,0.2,0.081,0.401,0.121,0.597c0.09,0.439,0.183,0.893,0.259,1.339
		c0.082,0.476,0.145,0.965,0.205,1.438c-0.92-0.421-1.954-0.804-3.197-1.187c-0.142-0.044-0.283-0.083-0.421-0.121
		c-0.06-0.017-0.123-0.034-0.183-0.051C7.339,14.952,7.096,15,6.962,15.128L6.939,15.15c-0.128,0.121-0.128,0.284-0.001,0.406
		c0.013,0.012,0.025,0.024,0.038,0.036c0.025,0.023,0.048,0.045,0.069,0.067c0.17,0.17,0.344,0.341,0.512,0.507l0.002,0.002
		c0.381,0.376,0.776,0.765,1.14,1.153c0.402,0.429,0.849,0.91,1.292,1.41c-0.269-0.03-0.555-0.056-0.863-0.078
		c-1.306-0.092-2.682-0.075-4.33,0.052c-0.15,0.012-0.299,0.027-0.443,0.042c-0.065,0.007-0.132,0.014-0.197,0.02
		c-0.129,0.013-0.229,0.085-0.242,0.175l-0.004,0.026c-0.013,0.085,0.055,0.166,0.168,0.2c0.019,0.006,0.039,0.012,0.058,0.018
		c0.04,0.012,0.077,0.023,0.114,0.035c0.27,0.087,0.545,0.175,0.811,0.259c0.604,0.192,1.229,0.39,1.83,0.6
		c0.396,0.138,0.82,0.287,1.257,0.444c-0.179,0.032-0.365,0.069-0.558,0.109c-1.257,0.263-2.518,0.644-3.97,1.201
		c-0.132,0.051-0.261,0.105-0.386,0.157c-0.056,0.024-0.114,0.048-0.171,0.071c-0.112,0.046-0.165,0.139-0.127,0.226l0.011,0.025
		c0.035,0.082,0.143,0.139,0.266,0.14c0.021,0,0.042,0.001,0.063,0.001c0.043,0,0.084,0.001,0.124,0.002H26.626z"/>
</g>
<g>
</g>
<g>
</g>
<g>
</g>
<g>
</g>
<g>
</g>
<g>
</g>
</svg>
